<svg xmlns="http://www.w3.org/2000/svg" xmlns:xlink="http://www.w3.org/1999/xlink" width="1080" zoomAndPan="magnify" viewBox="0 0 810 809.999993" height="1080" preserveAspectRatio="xMidYMid meet" version="1.0"><path fill="#e9e9e9" d="M 252.78125 77.722656 L 26.574219 203.050781 C 11.855469 211.207031 6.570312 229.625 14.726562 244.347656 L 140.035156 470.585938 C 148.1875 485.308594 166.601562 490.59375 181.324219 482.441406 L 407.527344 357.109375 C 422.246094 348.953125 427.53125 330.539062 419.378906 315.816406 L 294.066406 89.574219 C 285.914062 74.851562 267.5 69.566406 252.78125 77.722656 Z M 252.78125 77.722656 " fill-opacity="1" fill-rule="nonzero"/><path fill="#fdc92d" d="M 242.449219 74.707031 L 27.234375 193.949219 C 13.230469 201.707031 8.203125 219.230469 15.960938 233.238281 L 135.183594 448.488281 C 142.941406 462.496094 160.460938 467.523438 174.464844 459.765625 L 389.679688 340.523438 C 403.683594 332.765625 408.710938 315.242188 400.953125 301.234375 L 281.734375 85.984375 C 273.976562 71.976562 256.457031 66.949219 242.449219 74.707031 Z M 242.449219 74.707031 " fill-opacity="1" fill-rule="nonzero"/><path fill="#ffffff" d="M 265.5625 203.28125 L 126.195312 280.5 C 112.917969 287.855469 108.148438 304.46875 115.503906 317.746094 C 122.859375 331.027344 139.46875 335.792969 152.746094 328.4375 L 292.113281 251.21875 C 305.390625 243.863281 310.160156 227.25 302.804688 213.972656 C 295.449219 200.695312 278.839844 195.925781 265.5625 203.28125 Z M 265.5625 203.28125 " fill-opacity="1" fill-rule="nonzero"/><path fill="#ffffff" d="M 62.691406 317.988281 C 63.226562 317.863281 63.765625 317.742188 64.304688 317.621094 C 67.265625 317.042969 70.304688 316.554688 73.417969 316.144531 C 76.535156 315.742188 79.71875 315.421875 82.972656 315.1875 C 86.226562 314.953125 89.542969 314.804688 92.917969 314.746094 C 96.292969 314.683594 99.722656 314.707031 103.199219 314.816406 C 106.679688 314.925781 110.203125 315.121094 113.765625 315.402344 C 117.335938 315.683594 120.9375 316.050781 124.574219 316.503906 C 128.207031 316.957031 131.867188 317.496094 135.550781 318.117188 C 139.238281 318.734375 142.9375 319.4375 146.65625 320.222656 C 150.371094 321.007812 154.09375 321.875 157.820312 322.824219 C 161.550781 323.769531 165.277344 324.792969 169 325.898438 C 172.722656 327 176.429688 328.179688 180.128906 329.433594 C 183.824219 330.683594 187.496094 332.011719 191.148438 333.40625 C 194.800781 334.804688 198.421875 336.269531 202.015625 337.804688 C 205.601562 339.339844 209.152344 340.9375 212.65625 342.605469 C 216.164062 344.265625 219.621094 345.988281 223.027344 347.773438 C 226.4375 349.558594 229.789062 351.398438 233.082031 353.292969 C 236.371094 355.191406 239.597656 357.136719 242.753906 359.132812 C 245.914062 361.132812 248.996094 363.175781 252.003906 365.269531 C 255.015625 367.359375 257.941406 369.488281 260.789062 371.660156 C 263.628906 373.832031 266.382812 376.035156 269.050781 378.277344 C 271.714844 380.519531 274.28125 382.789062 276.753906 385.089844 C 279.226562 387.390625 281.59375 389.710938 283.859375 392.058594 C 285.347656 393.625 286.789062 395.203125 288.179688 396.789062 L 174.316406 459.875 C 160.3125 467.632812 142.792969 462.609375 135.035156 448.601562 Z M 62.691406 317.988281 " fill-opacity="0.281" fill-rule="nonzero"/><path fill="#ffffff" d="M 111.375 147.363281 L 242.304688 74.820312 C 242.742188 74.578125 243.183594 74.34375 243.628906 74.125 C 244.070312 73.90625 244.519531 73.707031 244.96875 73.511719 C 245.421875 73.324219 245.867188 73.140625 246.324219 72.96875 C 246.777344 72.804688 247.234375 72.644531 247.691406 72.5 C 248.152344 72.359375 248.613281 72.222656 249.074219 72.101562 C 249.535156 71.984375 250.003906 71.875 250.46875 71.777344 C 250.929688 71.683594 251.394531 71.597656 251.859375 71.527344 C 252.324219 71.453125 252.792969 71.386719 253.261719 71.335938 C 253.726562 71.285156 254.191406 71.246094 254.660156 71.222656 C 255.125 71.195312 255.589844 71.1875 256.058594 71.179688 C 256.523438 71.175781 256.984375 71.175781 257.449219 71.195312 C 257.914062 71.214844 258.382812 71.242188 258.84375 71.285156 C 259.304688 71.332031 259.761719 71.378906 260.222656 71.441406 C 260.679688 71.503906 261.140625 71.578125 261.59375 71.664062 C 262.046875 71.746094 262.496094 71.84375 262.945312 71.949219 C 263.394531 72.054688 263.839844 72.171875 264.285156 72.300781 C 264.730469 72.425781 265.171875 72.5625 265.605469 72.710938 C 266.042969 72.859375 266.480469 73.015625 266.910156 73.1875 C 267.339844 73.355469 267.765625 73.539062 268.1875 73.726562 C 268.609375 73.917969 269.027344 74.121094 269.441406 74.332031 C 269.851562 74.542969 270.261719 74.761719 270.664062 74.992188 C 271.066406 75.222656 271.46875 75.464844 271.859375 75.714844 C 272.253906 75.964844 272.636719 76.226562 273.015625 76.496094 C 273.398438 76.765625 273.777344 77.046875 274.144531 77.339844 C 274.511719 77.628906 274.875 77.929688 275.230469 78.238281 C 275.585938 78.546875 275.941406 78.863281 276.28125 79.191406 C 276.625 79.523438 276.953125 79.859375 277.28125 80.203125 C 277.609375 80.550781 277.933594 80.910156 278.246094 81.273438 C 278.558594 81.640625 278.863281 82.015625 279.15625 82.398438 C 279.457031 82.78125 279.738281 83.175781 280.015625 83.578125 C 280.292969 83.984375 280.570312 84.394531 280.832031 84.816406 C 281.089844 85.234375 281.347656 85.65625 281.589844 86.09375 L 361.726562 230.785156 C 359.449219 231.625 357.09375 232.398438 354.667969 233.109375 C 352.238281 233.824219 349.742188 234.46875 347.175781 235.050781 C 344.609375 235.632812 341.976562 236.148438 339.28125 236.597656 C 336.585938 237.046875 333.832031 237.425781 331.019531 237.742188 C 328.203125 238.054688 325.339844 238.300781 322.417969 238.480469 C 319.5 238.660156 316.53125 238.769531 313.519531 238.8125 C 310.503906 238.851562 307.449219 238.828125 304.351562 238.730469 C 301.257812 238.636719 298.125 238.472656 294.957031 238.242188 C 291.792969 238.011719 288.597656 237.710938 285.375 237.347656 C 282.152344 236.980469 278.90625 236.546875 275.636719 236.046875 C 272.371094 235.546875 269.089844 234.980469 265.789062 234.347656 C 262.492188 233.714844 259.183594 233.015625 255.871094 232.253906 C 252.554688 231.492188 249.234375 230.667969 245.914062 229.78125 C 242.597656 228.894531 239.28125 227.941406 235.96875 226.933594 C 232.660156 225.921875 229.359375 224.851562 226.074219 223.722656 C 222.785156 222.59375 219.515625 221.40625 216.261719 220.164062 C 210.789062 218.070312 205.394531 215.824219 200.074219 213.425781 C 194.75 211.027344 189.535156 208.492188 184.429688 205.816406 C 179.320312 203.144531 174.347656 200.347656 169.511719 197.429688 C 164.671875 194.511719 160 191.484375 155.488281 188.355469 C 150.976562 185.222656 146.65625 182.003906 142.523438 178.695312 C 138.390625 175.390625 134.46875 172.011719 130.761719 168.566406 C 127.054688 165.121094 123.578125 161.628906 120.339844 158.082031 C 117.097656 154.539062 114.113281 150.964844 111.375 147.359375 Z M 111.375 147.363281 " fill-opacity="0.153" fill-rule="nonzero"/><path fill="#e9e9e9" d="M 373.324219 373.695312 L 363.921875 90.9375 C 363.308594 72.539062 377.628906 57.234375 396.023438 56.625 L 678.730469 47.21875 C 697.128906 46.605469 712.429688 60.925781 713.042969 79.324219 L 722.445312 362.078125 C 723.058594 380.480469 708.738281 395.785156 690.34375 396.394531 L 407.636719 405.800781 C 389.238281 406.414062 373.9375 392.09375 373.324219 373.695312 Z M 373.324219 373.695312 " fill-opacity="1" fill-rule="nonzero"/><path fill="#e85f79" d="M 364.707031 367.105469 L 355.757812 98.085938 C 355.175781 80.582031 368.796875 66.019531 386.300781 65.4375 L 655.273438 56.492188 C 672.777344 55.90625 687.335938 69.53125 687.917969 87.035156 L 696.863281 356.054688 C 697.445312 373.558594 683.824219 388.121094 666.324219 388.703125 L 397.347656 397.652344 C 379.847656 398.234375 365.289062 384.609375 364.707031 367.105469 Z M 364.707031 367.105469 " fill-opacity="1" fill-rule="nonzero"/><path fill="#ffffff" d="M 498.304688 315.054688 L 492.511719 140.84375 C 491.960938 124.246094 504.875 110.441406 521.464844 109.890625 C 538.058594 109.339844 551.859375 122.253906 552.414062 138.847656 L 558.207031 313.0625 C 558.757812 329.65625 545.84375 343.460938 529.253906 344.011719 C 512.660156 344.566406 498.855469 331.648438 498.304688 315.054688 Z M 498.304688 315.054688 " fill-opacity="1" fill-rule="nonzero"/><path fill="#ffffff" d="M 437.261719 199.847656 L 611.445312 194.054688 C 628.039062 193.503906 641.839844 206.417969 642.394531 223.015625 C 642.945312 239.609375 630.03125 253.414062 613.4375 253.964844 L 439.253906 259.761719 C 422.664062 260.3125 408.859375 247.394531 408.308594 230.800781 C 407.757812 214.207031 420.671875 200.402344 437.261719 199.847656 Z M 437.261719 199.847656 " fill-opacity="1" fill-rule="nonzero"/><path fill="#ffffff" d="M 492.082031 62.183594 C 492.261719 62.753906 492.449219 63.328125 492.640625 63.902344 C 493.761719 67.007812 495.007812 70.132812 496.375 73.289062 C 497.742188 76.441406 499.230469 79.609375 500.839844 82.796875 C 502.449219 85.984375 504.171875 89.179688 506.011719 92.382812 C 507.847656 95.585938 509.792969 98.789062 511.851562 101.996094 C 513.90625 105.199219 516.070312 108.394531 518.335938 111.585938 C 520.601562 114.777344 522.96875 117.953125 525.4375 121.113281 C 527.902344 124.269531 530.460938 127.402344 533.113281 130.515625 C 535.765625 133.625 538.503906 136.707031 541.328125 139.757812 C 544.152344 142.804688 547.054688 145.808594 550.039062 148.777344 C 553.023438 151.75 556.074219 154.671875 559.199219 157.550781 C 562.328125 160.421875 565.515625 163.242188 568.765625 166.007812 C 572.019531 168.773438 575.324219 171.480469 578.6875 174.125 C 582.050781 176.769531 585.460938 179.347656 588.917969 181.855469 C 592.371094 184.363281 595.867188 186.796875 599.398438 189.152344 C 602.925781 191.511719 606.484375 193.789062 610.074219 195.988281 C 613.664062 198.1875 617.269531 200.296875 620.898438 202.324219 C 624.527344 204.351562 628.164062 206.285156 631.8125 208.128906 C 635.460938 209.96875 639.113281 211.714844 642.765625 213.367188 C 646.417969 215.019531 650.058594 216.570312 653.695312 218.023438 C 657.328125 219.476562 660.945312 220.820312 664.546875 222.066406 C 668.144531 223.308594 671.71875 224.445312 675.269531 225.472656 C 678.8125 226.5 682.324219 227.421875 685.796875 228.230469 C 688.105469 228.746094 690.394531 229.214844 692.664062 229.628906 L 687.929688 87.300781 C 687.347656 69.796875 672.792969 56.171875 655.289062 56.753906 Z M 492.082031 62.183594 " fill-opacity="0.311" fill-rule="nonzero"/><path fill="#ffffff" d="M 359.277344 203.703125 L 364.71875 367.367188 C 364.738281 367.914062 364.765625 368.457031 364.808594 369 C 364.851562 369.535156 364.917969 370.070312 364.988281 370.601562 C 365.0625 371.132812 365.140625 371.65625 365.238281 372.179688 C 365.339844 372.699219 365.445312 373.214844 365.566406 373.726562 C 365.691406 374.238281 365.824219 374.75 365.96875 375.25 C 366.117188 375.75 366.277344 376.246094 366.445312 376.738281 C 366.617188 377.226562 366.796875 377.707031 366.992188 378.1875 C 367.183594 378.664062 367.386719 379.144531 367.601562 379.609375 C 367.816406 380.074219 368.042969 380.53125 368.277344 380.984375 C 368.515625 381.4375 368.765625 381.882812 369.023438 382.324219 C 369.28125 382.761719 369.542969 383.195312 369.820312 383.621094 C 370.097656 384.046875 370.390625 384.46875 370.683594 384.878906 C 370.984375 385.292969 371.289062 385.691406 371.605469 386.089844 C 371.921875 386.484375 372.25 386.871094 372.585938 387.25 C 372.917969 387.628906 373.261719 388 373.613281 388.359375 C 373.964844 388.722656 374.324219 389.074219 374.691406 389.421875 C 375.0625 389.765625 375.4375 390.101562 375.824219 390.429688 C 376.207031 390.757812 376.597656 391.078125 377 391.386719 C 377.402344 391.695312 377.808594 391.992188 378.222656 392.28125 C 378.640625 392.570312 379.066406 392.847656 379.496094 393.117188 C 379.925781 393.386719 380.359375 393.648438 380.804688 393.898438 C 381.246094 394.148438 381.695312 394.386719 382.152344 394.617188 C 382.605469 394.84375 383.066406 395.058594 383.535156 395.261719 C 384.003906 395.46875 384.480469 395.664062 384.960938 395.847656 C 385.4375 396.03125 385.921875 396.203125 386.414062 396.363281 C 386.902344 396.523438 387.402344 396.675781 387.902344 396.8125 C 388.402344 396.949219 388.902344 397.070312 389.410156 397.183594 C 389.921875 397.296875 390.4375 397.398438 390.957031 397.484375 C 391.472656 397.578125 391.996094 397.648438 392.523438 397.710938 C 393.050781 397.777344 393.578125 397.820312 394.113281 397.859375 C 394.648438 397.882812 395.191406 397.921875 395.730469 397.929688 C 396.269531 397.933594 396.8125 397.9375 397.359375 397.921875 L 578.160156 391.910156 C 577.667969 389.296875 577.074219 386.652344 576.378906 383.972656 C 575.683594 381.292969 574.886719 378.585938 573.992188 375.847656 C 573.097656 373.113281 572.101562 370.351562 571.011719 367.570312 C 569.917969 364.789062 568.730469 361.988281 567.445312 359.167969 C 566.160156 356.351562 564.78125 353.523438 563.3125 350.679688 C 561.839844 347.839844 560.277344 344.992188 558.621094 342.136719 C 556.96875 339.285156 555.230469 336.429688 553.402344 333.578125 C 551.574219 330.722656 549.664062 327.875 547.667969 325.03125 C 545.671875 322.1875 543.597656 319.355469 541.445312 316.535156 C 539.289062 313.714844 537.058594 310.914062 534.753906 308.125 C 532.453125 305.339844 530.078125 302.574219 527.628906 299.832031 C 525.183594 297.09375 522.671875 294.378906 520.097656 291.695312 C 517.519531 289.007812 514.882812 286.355469 512.183594 283.738281 C 509.488281 281.121094 506.734375 278.539062 503.925781 276 C 501.117188 273.457031 498.261719 270.960938 495.355469 268.507812 C 492.449219 266.058594 489.5 263.652344 486.507812 261.296875 C 481.46875 257.335938 476.328125 253.53125 471.089844 249.882812 C 465.851562 246.230469 460.542969 242.761719 455.164062 239.464844 C 449.789062 236.171875 444.371094 233.074219 438.914062 230.171875 C 433.457031 227.269531 427.996094 224.578125 422.523438 222.101562 C 417.050781 219.625 411.601562 217.375 406.175781 215.351562 C 400.753906 213.328125 395.382812 211.546875 390.066406 210 C 384.75 208.453125 379.519531 207.152344 374.371094 206.101562 C 369.226562 205.050781 364.195312 204.253906 359.277344 203.707031 Z M 359.277344 203.703125 " fill-opacity="0.153" fill-rule="nonzero"/><path fill="#e9e9e9" d="M 200.992188 340.597656 L 456.703125 436.808594 C 473.34375 443.070312 481.699219 461.507812 475.441406 478.148438 L 379.246094 733.90625 C 372.984375 750.546875 354.550781 758.90625 337.910156 752.644531 L 82.199219 656.433594 C 65.558594 650.175781 57.203125 631.734375 63.460938 615.09375 L 159.65625 359.339844 C 165.917969 342.695312 184.351562 334.339844 200.992188 340.597656 Z M 200.992188 340.597656 " fill-opacity="1" fill-rule="nonzero"/><path fill="#848ac4" d="M 208.121094 334.609375 L 451.414062 426.144531 C 467.246094 432.097656 475.195312 449.640625 469.238281 465.476562 L 377.71875 708.804688 C 371.765625 724.636719 354.226562 732.589844 338.394531 726.632812 L 95.105469 635.101562 C 79.273438 629.144531 71.324219 611.601562 77.277344 595.769531 L 168.796875 352.4375 C 174.753906 336.605469 192.292969 328.652344 208.121094 334.609375 Z M 208.121094 334.609375 " fill-opacity="1" fill-rule="nonzero"/><path fill="#ffffff" d="M 204.996094 473.03125 L 362.546875 532.308594 C 377.554688 537.953125 385.09375 554.585938 379.449219 569.59375 C 373.800781 584.605469 357.175781 592.144531 342.164062 586.496094 L 184.613281 527.222656 C 169.605469 521.574219 162.070312 504.945312 167.714844 489.933594 C 173.359375 474.921875 189.988281 467.382812 204.996094 473.03125 Z M 204.996094 473.03125 " fill-opacity="1" fill-rule="nonzero"/><path fill="#ffffff" d="M 328.25 466.089844 C 327.917969 466.972656 327.542969 467.835938 327.125 468.679688 C 326.710938 469.527344 326.253906 470.347656 325.757812 471.148438 C 325.257812 471.949219 324.722656 472.722656 324.152344 473.46875 C 323.578125 474.214844 322.96875 474.933594 322.324219 475.621094 C 321.683594 476.308594 321.007812 476.960938 320.300781 477.582031 C 319.589844 478.203125 318.855469 478.789062 318.089844 479.339844 C 317.324219 479.886719 316.535156 480.398438 315.71875 480.867188 C 314.902344 481.339844 314.066406 481.769531 313.207031 482.15625 C 312.351562 482.546875 311.476562 482.890625 310.585938 483.195312 C 309.691406 483.5 308.789062 483.757812 307.871094 483.972656 C 306.953125 484.183594 306.027344 484.351562 305.09375 484.476562 C 304.160156 484.601562 303.222656 484.675781 302.285156 484.707031 C 301.34375 484.738281 300.402344 484.722656 299.460938 484.660156 C 298.523438 484.601562 297.589844 484.492188 296.660156 484.339844 C 295.730469 484.1875 294.808594 483.988281 293.902344 483.746094 C 292.992188 483.5 292.09375 483.214844 291.214844 482.882812 C 290.332031 482.550781 289.46875 482.175781 288.625 481.761719 C 287.78125 481.34375 286.957031 480.886719 286.160156 480.390625 C 285.359375 479.890625 284.585938 479.355469 283.839844 478.785156 C 283.089844 478.210938 282.375 477.601562 281.6875 476.957031 C 281 476.316406 280.34375 475.640625 279.722656 474.929688 C 279.101562 474.222656 278.519531 473.484375 277.96875 472.71875 C 277.421875 471.957031 276.910156 471.164062 276.441406 470.347656 C 275.96875 469.535156 275.539062 468.695312 275.152344 467.839844 C 274.761719 466.980469 274.414062 466.105469 274.113281 465.214844 C 273.808594 464.324219 273.550781 463.417969 273.335938 462.5 C 273.125 461.585938 272.957031 460.660156 272.832031 459.726562 C 272.710938 458.792969 272.632812 457.855469 272.601562 456.914062 C 272.570312 455.972656 272.585938 455.03125 272.648438 454.089844 C 272.707031 453.152344 272.816406 452.214844 272.96875 451.289062 C 273.121094 450.359375 273.320312 449.4375 273.5625 448.527344 C 273.808594 447.617188 274.09375 446.722656 274.425781 445.84375 C 274.757812 444.960938 275.132812 444.097656 275.546875 443.253906 C 275.964844 442.40625 276.421875 441.585938 276.917969 440.785156 C 277.414062 439.984375 277.949219 439.210938 278.523438 438.464844 C 279.097656 437.71875 279.707031 437 280.347656 436.3125 C 280.992188 435.625 281.667969 434.972656 282.375 434.351562 C 283.085938 433.730469 283.820312 433.144531 284.585938 432.59375 C 285.351562 432.046875 286.140625 431.535156 286.957031 431.066406 C 287.773438 430.59375 288.609375 430.164062 289.46875 429.777344 C 290.324219 429.386719 291.199219 429.039062 292.089844 428.738281 C 292.980469 428.433594 293.886719 428.175781 294.804688 427.960938 C 295.71875 427.75 296.644531 427.578125 297.578125 427.457031 C 298.511719 427.332031 299.449219 427.257812 300.390625 427.226562 C 301.332031 427.195312 302.273438 427.210938 303.214844 427.273438 C 304.152344 427.332031 305.085938 427.441406 306.015625 427.59375 C 306.945312 427.746094 307.863281 427.945312 308.773438 428.1875 C 309.683594 428.433594 310.578125 428.71875 311.460938 429.050781 C 312.34375 429.382812 313.203125 429.757812 314.050781 430.171875 C 314.894531 430.589844 315.714844 431.046875 316.515625 431.542969 C 317.316406 432.042969 318.089844 432.578125 318.835938 433.148438 C 319.582031 433.722656 320.300781 434.332031 320.988281 434.976562 C 321.675781 435.617188 322.332031 436.292969 322.949219 437.003906 C 323.570312 437.710938 324.15625 438.449219 324.707031 439.210938 C 325.253906 439.976562 325.765625 440.769531 326.234375 441.585938 C 326.707031 442.398438 327.136719 443.238281 327.523438 444.09375 C 327.914062 444.953125 328.257812 445.828125 328.5625 446.71875 C 328.863281 447.609375 329.125 448.515625 329.335938 449.433594 C 329.550781 450.347656 329.71875 451.273438 329.84375 452.207031 C 329.964844 453.140625 330.042969 454.078125 330.074219 455.019531 C 330.105469 455.960938 330.089844 456.902344 330.027344 457.84375 C 329.96875 458.78125 329.859375 459.71875 329.707031 460.644531 C 329.554688 461.574219 329.355469 462.496094 329.109375 463.40625 C 328.867188 464.316406 328.578125 465.210938 328.25 466.089844 Z M 328.25 466.089844 " fill-opacity="1" fill-rule="nonzero"/><path fill="#ffffff" d="M 273.152344 612.578125 C 272.820312 613.460938 272.445312 614.324219 272.03125 615.167969 C 271.613281 616.015625 271.15625 616.835938 270.660156 617.636719 C 270.164062 618.4375 269.628906 619.210938 269.054688 619.957031 C 268.480469 620.703125 267.875 621.421875 267.230469 622.109375 C 266.585938 622.796875 265.910156 623.449219 265.203125 624.074219 C 264.496094 624.695312 263.757812 625.277344 262.992188 625.828125 C 262.226562 626.375 261.4375 626.886719 260.621094 627.355469 C 259.804688 627.828125 258.96875 628.257812 258.113281 628.644531 C 257.253906 629.035156 256.378906 629.382812 255.488281 629.683594 C 254.597656 629.988281 253.691406 630.246094 252.773438 630.460938 C 251.859375 630.671875 250.933594 630.84375 250 630.964844 C 249.066406 631.089844 248.128906 631.164062 247.1875 631.195312 C 246.246094 631.226562 245.304688 631.210938 244.367188 631.148438 C 243.425781 631.089844 242.492188 630.980469 241.5625 630.828125 C 240.632812 630.675781 239.714844 630.476562 238.804688 630.234375 C 237.894531 629.988281 237 629.703125 236.117188 629.371094 C 235.238281 629.039062 234.375 628.664062 233.527344 628.25 C 232.683594 627.832031 231.863281 627.375 231.0625 626.878906 C 230.261719 626.378906 229.488281 625.84375 228.742188 625.273438 C 227.996094 624.699219 227.277344 624.089844 226.589844 623.445312 C 225.902344 622.804688 225.25 622.128906 224.628906 621.417969 C 224.007812 620.710938 223.421875 619.976562 222.875 619.210938 C 222.324219 618.445312 221.816406 617.652344 221.34375 616.835938 C 220.871094 616.023438 220.441406 615.183594 220.054688 614.328125 C 219.664062 613.46875 219.320312 612.59375 219.015625 611.703125 C 218.714844 610.8125 218.457031 609.90625 218.242188 608.988281 C 218.027344 608.074219 217.859375 607.148438 217.734375 606.214844 C 217.613281 605.28125 217.535156 604.34375 217.503906 603.402344 C 217.472656 602.460938 217.488281 601.519531 217.550781 600.578125 C 217.613281 599.640625 217.71875 598.703125 217.871094 597.773438 C 218.027344 596.847656 218.222656 595.925781 218.46875 595.015625 C 218.710938 594.105469 219 593.210938 219.332031 592.328125 C 219.664062 591.449219 220.035156 590.585938 220.453125 589.742188 C 220.867188 588.894531 221.324219 588.074219 221.824219 587.273438 C 222.320312 586.472656 222.855469 585.699219 223.429688 584.953125 C 224 584.207031 224.609375 583.488281 225.253906 582.800781 C 225.898438 582.113281 226.574219 581.460938 227.28125 580.835938 C 227.988281 580.214844 228.726562 579.632812 229.488281 579.082031 C 230.253906 578.535156 231.046875 578.023438 231.859375 577.554688 C 232.675781 577.082031 233.511719 576.652344 234.371094 576.261719 C 235.226562 575.875 236.101562 575.527344 236.996094 575.226562 C 237.886719 574.921875 238.789062 574.664062 239.707031 574.449219 C 240.625 574.238281 241.550781 574.066406 242.484375 573.945312 C 243.417969 573.820312 244.355469 573.746094 245.296875 573.714844 C 246.238281 573.683594 247.175781 573.699219 248.117188 573.757812 C 249.054688 573.820312 249.992188 573.929688 250.921875 574.082031 C 251.847656 574.234375 252.769531 574.433594 253.679688 574.675781 C 254.585938 574.921875 255.484375 575.207031 256.363281 575.539062 C 257.246094 575.871094 258.109375 576.246094 258.953125 576.660156 C 259.796875 577.078125 260.621094 577.535156 261.421875 578.03125 C 262.21875 578.527344 262.992188 579.066406 263.742188 579.636719 C 264.488281 580.210938 265.203125 580.820312 265.890625 581.464844 C 266.578125 582.105469 267.234375 582.78125 267.855469 583.492188 C 268.476562 584.199219 269.0625 584.933594 269.609375 585.699219 C 270.15625 586.464844 270.667969 587.257812 271.140625 588.070312 C 271.609375 588.886719 272.039062 589.722656 272.429688 590.582031 C 272.816406 591.441406 273.164062 592.316406 273.464844 593.207031 C 273.769531 594.097656 274.027344 595.003906 274.242188 595.917969 C 274.457031 596.835938 274.625 597.761719 274.746094 598.695312 C 274.871094 599.628906 274.945312 600.566406 274.976562 601.507812 C 275.007812 602.449219 274.992188 603.390625 274.933594 604.332031 C 274.871094 605.269531 274.761719 606.203125 274.609375 607.132812 C 274.457031 608.0625 274.257812 608.984375 274.015625 609.894531 C 273.769531 610.800781 273.484375 611.699219 273.152344 612.578125 Z M 273.152344 612.578125 " fill-opacity="1" fill-rule="nonzero"/><path fill="#ffffff" d="M 432.054688 560.703125 C 431.476562 560.652344 430.898438 560.605469 430.3125 560.5625 C 427.128906 560.417969 423.878906 560.371094 420.558594 560.425781 C 417.242188 560.480469 413.863281 560.636719 410.425781 560.890625 C 406.988281 561.148438 403.5 561.503906 399.960938 561.960938 C 396.425781 562.414062 392.847656 562.964844 389.226562 563.617188 C 385.609375 564.265625 381.957031 565.011719 378.273438 565.855469 C 374.585938 566.695312 370.878906 567.632812 367.148438 568.667969 C 363.417969 569.699219 359.675781 570.824219 355.917969 572.039062 C 352.160156 573.253906 348.402344 574.558594 344.636719 575.949219 C 340.875 577.34375 337.117188 578.820312 333.367188 580.386719 C 329.613281 581.949219 325.875 583.59375 322.152344 585.316406 C 318.429688 587.042969 314.734375 588.84375 311.066406 590.722656 C 307.394531 592.601562 303.757812 594.550781 300.15625 596.574219 C 296.554688 598.597656 292.992188 600.683594 289.476562 602.839844 C 285.960938 604.996094 282.5 607.214844 279.089844 609.496094 C 275.679688 611.773438 272.332031 614.105469 269.042969 616.492188 C 265.753906 618.882812 262.535156 621.320312 259.382812 623.808594 C 256.234375 626.296875 253.164062 628.828125 250.171875 631.402344 C 247.175781 633.976562 244.269531 636.589844 241.445312 639.234375 C 238.621094 641.882812 235.886719 644.5625 233.246094 647.269531 C 230.609375 649.972656 228.070312 652.703125 225.628906 655.453125 C 223.1875 658.207031 220.851562 660.976562 218.621094 663.761719 C 216.394531 666.546875 214.277344 669.335938 212.269531 672.136719 C 210.953125 674.007812 209.691406 675.875 208.480469 677.746094 L 337.195312 726.175781 C 353.027344 732.132812 370.566406 724.183594 376.523438 708.351562 Z M 432.054688 560.703125 " fill-opacity="0.255" fill-rule="nonzero"/><path fill="#ffffff" d="M 354.9375 389.839844 L 206.925781 334.152344 C 206.433594 333.96875 205.933594 333.789062 205.4375 333.628906 C 204.941406 333.464844 204.441406 333.328125 203.941406 333.195312 C 203.441406 333.066406 202.945312 332.941406 202.441406 332.832031 C 201.941406 332.730469 201.441406 332.636719 200.9375 332.554688 C 200.4375 332.472656 199.933594 332.40625 199.433594 332.351562 C 198.933594 332.296875 198.429688 332.257812 197.929688 332.226562 C 197.429688 332.199219 196.933594 332.179688 196.433594 332.171875 C 195.933594 332.167969 195.433594 332.171875 194.941406 332.191406 C 194.445312 332.207031 193.953125 332.242188 193.460938 332.285156 C 192.96875 332.328125 192.480469 332.386719 191.992188 332.453125 C 191.503906 332.515625 191.023438 332.59375 190.539062 332.6875 C 190.058594 332.777344 189.574219 332.878906 189.097656 332.992188 C 188.621094 333.105469 188.148438 333.230469 187.679688 333.367188 C 187.210938 333.503906 186.742188 333.652344 186.28125 333.8125 C 185.816406 333.96875 185.363281 334.136719 184.910156 334.316406 C 184.457031 334.496094 184.007812 334.6875 183.5625 334.890625 C 183.121094 335.089844 182.679688 335.300781 182.246094 335.523438 C 181.8125 335.746094 181.378906 335.976562 180.957031 336.21875 C 180.53125 336.464844 180.117188 336.71875 179.707031 336.980469 C 179.292969 337.246094 178.886719 337.523438 178.488281 337.808594 C 178.089844 338.089844 177.695312 338.382812 177.308594 338.683594 C 176.925781 338.988281 176.542969 339.300781 176.171875 339.621094 C 175.800781 339.945312 175.4375 340.277344 175.082031 340.617188 C 174.726562 340.960938 174.375 341.3125 174.035156 341.671875 C 173.691406 342.03125 173.359375 342.402344 173.039062 342.777344 C 172.710938 343.15625 172.390625 343.542969 172.082031 343.941406 C 171.777344 344.335938 171.484375 344.738281 171.195312 345.152344 C 170.90625 345.5625 170.625 345.988281 170.351562 346.417969 C 170.082031 346.847656 169.820312 347.285156 169.570312 347.734375 C 169.316406 348.175781 169.085938 348.632812 168.855469 349.097656 C 168.628906 349.5625 168.402344 350.035156 168.195312 350.515625 C 167.988281 350.996094 167.785156 351.476562 167.597656 351.96875 L 106.078125 515.53125 C 108.589844 516.058594 111.167969 516.507812 113.816406 516.878906 C 116.464844 517.25 119.171875 517.542969 121.945312 517.753906 C 124.71875 517.96875 127.546875 518.101562 130.433594 518.15625 C 133.320312 518.210938 136.257812 518.1875 139.246094 518.082031 C 142.234375 517.980469 145.269531 517.796875 148.347656 517.535156 C 151.429688 517.269531 154.546875 516.929688 157.703125 516.511719 C 160.859375 516.089844 164.050781 515.59375 167.273438 515.019531 C 170.492188 514.441406 173.742188 513.789062 177.015625 513.0625 C 180.289062 512.332031 183.582031 511.53125 186.894531 510.652344 C 190.207031 509.773438 193.535156 508.820312 196.871094 507.792969 C 200.210938 506.769531 203.554688 505.671875 206.90625 504.503906 C 210.257812 503.335938 213.605469 502.097656 216.953125 500.792969 C 220.304688 499.484375 223.644531 498.113281 226.976562 496.675781 C 230.3125 495.234375 233.628906 493.734375 236.933594 492.167969 C 240.242188 490.601562 243.523438 488.976562 246.789062 487.292969 C 250.050781 485.605469 253.285156 483.863281 256.492188 482.0625 C 261.890625 479.03125 267.1875 475.855469 272.382812 472.527344 C 277.574219 469.203125 282.636719 465.75 287.5625 462.171875 C 292.492188 458.589844 297.261719 454.902344 301.867188 451.109375 C 306.472656 447.3125 310.894531 443.433594 315.128906 439.464844 C 319.363281 435.5 323.382812 431.46875 327.195312 427.378906 C 331.007812 423.285156 334.585938 419.152344 337.933594 414.980469 C 341.277344 410.808594 344.371094 406.621094 347.214844 402.417969 C 350.054688 398.214844 352.628906 394.019531 354.933594 389.832031 Z M 354.9375 389.839844 " fill-opacity="0.153" fill-rule="nonzero"/><path fill="#e9e9e9" d="M 392.082031 461.886719 L 604.308594 315.683594 C 618.117188 306.167969 636.890625 309.628906 646.402344 323.441406 L 792.582031 535.699219 C 802.09375 549.511719 798.632812 568.289062 784.824219 577.800781 L 572.601562 724.003906 C 558.792969 733.519531 540.015625 730.058594 530.503906 716.246094 L 384.324219 503.988281 C 374.8125 490.175781 378.273438 471.398438 392.082031 461.886719 Z M 392.082031 461.886719 " fill-opacity="1" fill-rule="nonzero"/><path fill="#4bb0e4" d="M 390.828125 453.429688 L 592.738281 314.332031 C 605.878906 305.28125 623.742188 308.570312 632.789062 321.710938 L 771.867188 523.660156 C 780.917969 536.800781 777.625 554.664062 764.488281 563.714844 L 562.574219 702.816406 C 549.4375 711.867188 531.574219 708.574219 522.523438 695.433594 L 383.445312 493.488281 C 374.394531 480.347656 377.6875 462.480469 390.828125 453.429688 Z M 390.828125 453.429688 " fill-opacity="1" fill-rule="nonzero"/><path fill="#ffffff" d="M 512.726562 460.683594 L 668.953125 489.003906 C 683.835938 491.699219 693.644531 505.855469 690.949219 520.742188 C 688.25 535.625 674.097656 545.4375 659.214844 542.738281 L 502.988281 514.417969 C 488.109375 511.722656 478.296875 497.566406 480.996094 482.683594 C 483.691406 467.796875 497.84375 457.984375 512.726562 460.683594 Z M 512.726562 460.683594 " fill-opacity="1" fill-rule="nonzero"/><path fill="#ffffff" d="M 627 428.507812 L 598.6875 584.757812 C 595.988281 599.644531 581.835938 609.453125 566.953125 606.757812 C 552.070312 604.058594 542.261719 589.90625 544.960938 575.019531 L 573.273438 418.769531 C 575.972656 403.882812 590.125 394.070312 605.007812 396.769531 C 619.890625 399.46875 629.699219 413.621094 627 428.507812 Z M 627 428.507812 " fill-opacity="1" fill-rule="nonzero"/><path fill="#ffffff" d="M 687.53125 401.082031 C 687.179688 401.5 686.832031 401.925781 686.484375 402.355469 C 684.65625 404.742188 682.867188 407.234375 681.125 409.835938 C 679.378906 412.433594 677.679688 415.132812 676.023438 417.933594 C 674.371094 420.734375 672.769531 423.625 671.214844 426.613281 C 669.664062 429.59375 668.160156 432.664062 666.714844 435.816406 C 665.269531 438.96875 663.878906 442.199219 662.546875 445.507812 C 661.214844 448.816406 659.941406 452.191406 658.730469 455.636719 C 657.523438 459.082031 656.378906 462.585938 655.296875 466.148438 C 654.210938 469.714844 653.195312 473.328125 652.246094 476.992188 C 651.296875 480.65625 650.417969 484.363281 649.609375 488.109375 C 648.796875 491.859375 648.054688 495.640625 647.386719 499.449219 C 646.71875 503.261719 646.121094 507.09375 645.597656 510.949219 C 645.078125 514.800781 644.628906 518.667969 644.253906 522.546875 C 643.878906 526.429688 643.578125 530.308594 643.351562 534.195312 C 643.128906 538.078125 642.980469 541.953125 642.90625 545.824219 C 642.832031 549.691406 642.835938 553.539062 642.914062 557.371094 C 642.992188 561.207031 643.144531 565.011719 643.375 568.792969 C 643.605469 572.570312 643.910156 576.3125 644.289062 580.019531 C 644.671875 583.722656 645.125 587.382812 645.65625 590.996094 C 646.183594 594.609375 646.785156 598.167969 647.457031 601.667969 C 648.132812 605.171875 648.875 608.605469 649.691406 611.980469 C 650.507812 615.351562 651.394531 618.652344 652.347656 621.878906 C 653.304688 625.105469 654.324219 628.25 655.410156 631.3125 C 656.148438 633.335938 656.917969 635.324219 657.710938 637.269531 L 764.535156 563.675781 C 777.675781 554.625 780.96875 536.757812 771.921875 523.617188 Z M 687.53125 401.082031 " fill-opacity="0.383" fill-rule="nonzero"/><path fill="#ffffff" d="M 513.714844 368.765625 L 390.878906 453.390625 C 390.46875 453.675781 390.0625 453.964844 389.671875 454.265625 C 389.277344 454.5625 388.898438 454.875 388.527344 455.1875 C 388.160156 455.507812 387.792969 455.824219 387.441406 456.15625 C 387.089844 456.488281 386.746094 456.824219 386.414062 457.167969 C 386.085938 457.515625 385.757812 457.867188 385.445312 458.226562 C 385.132812 458.585938 384.832031 458.953125 384.539062 459.324219 C 384.246094 459.695312 383.96875 460.070312 383.695312 460.453125 C 383.421875 460.839844 383.15625 461.226562 382.90625 461.621094 C 382.652344 462.015625 382.414062 462.414062 382.183594 462.816406 C 381.949219 463.222656 381.734375 463.632812 381.523438 464.046875 C 381.3125 464.460938 381.109375 464.875 380.917969 465.296875 C 380.730469 465.71875 380.546875 466.148438 380.378906 466.578125 C 380.210938 467.007812 380.050781 467.441406 379.902344 467.875 C 379.757812 468.3125 379.621094 468.757812 379.496094 469.199219 C 379.367188 469.644531 379.253906 470.085938 379.148438 470.535156 C 379.042969 470.980469 378.949219 471.433594 378.867188 471.886719 C 378.785156 472.335938 378.707031 472.789062 378.648438 473.246094 C 378.585938 473.703125 378.53125 474.160156 378.492188 474.621094 C 378.453125 475.082031 378.425781 475.539062 378.410156 476 C 378.390625 476.460938 378.386719 476.925781 378.390625 477.386719 C 378.394531 477.847656 378.410156 478.308594 378.4375 478.773438 C 378.464844 479.234375 378.5 479.699219 378.550781 480.160156 C 378.597656 480.621094 378.660156 481.078125 378.734375 481.539062 C 378.804688 482 378.890625 482.460938 378.984375 482.917969 C 379.082031 483.375 379.1875 483.832031 379.304688 484.285156 C 379.421875 484.742188 379.550781 485.199219 379.691406 485.652344 C 379.832031 486.101562 379.984375 486.542969 380.148438 486.992188 C 380.3125 487.4375 380.488281 487.882812 380.675781 488.324219 C 380.863281 488.765625 381.0625 489.203125 381.273438 489.636719 C 381.480469 490.074219 381.710938 490.5 381.945312 490.929688 C 382.183594 491.351562 382.425781 491.785156 382.6875 492.203125 C 382.945312 492.621094 383.207031 493.039062 383.492188 493.449219 L 476.976562 629.195312 C 478.738281 627.535156 480.476562 625.777344 482.1875 623.925781 C 483.902344 622.078125 485.585938 620.136719 487.246094 618.105469 C 488.902344 616.070312 490.53125 613.953125 492.128906 611.746094 C 493.726562 609.539062 495.289062 607.253906 496.816406 604.882812 C 498.347656 602.511719 499.839844 600.0625 501.296875 597.535156 C 502.75 595.011719 504.167969 592.414062 505.542969 589.742188 C 506.917969 587.070312 508.25 584.332031 509.539062 581.527344 C 510.832031 578.722656 512.074219 575.855469 513.273438 572.929688 C 514.476562 570 515.625 567.015625 516.730469 563.976562 C 517.835938 560.941406 518.890625 557.851562 519.894531 554.714844 C 520.898438 551.574219 521.851562 548.394531 522.75 545.171875 C 523.648438 541.949219 524.496094 538.6875 525.289062 535.390625 C 526.082031 532.09375 526.820312 528.765625 527.5 525.410156 C 528.183594 522.054688 528.808594 518.675781 529.375 515.273438 C 529.945312 511.867188 530.453125 508.449219 530.90625 505.015625 C 531.359375 501.578125 531.753906 498.136719 532.085938 494.683594 C 532.648438 488.867188 533.042969 483.054688 533.265625 477.242188 C 533.488281 471.429688 533.542969 465.652344 533.425781 459.90625 C 533.308594 454.160156 533.019531 448.484375 532.5625 442.871094 C 532.109375 437.257812 531.484375 431.746094 530.695312 426.328125 C 529.902344 420.914062 528.953125 415.628906 527.835938 410.472656 C 526.722656 405.316406 525.449219 400.320312 524.023438 395.480469 C 522.59375 390.644531 521.019531 385.992188 519.296875 381.527344 C 517.574219 377.0625 515.710938 372.808594 513.710938 368.765625 Z M 513.714844 368.765625 " fill-opacity="0.153" fill-rule="nonzero"/></svg>